<?xml version="1.0" encoding="UTF-8"?>
<svg width="512pt" height="512pt" version="1.1" viewBox="0 0 512 512" xmlns="http://www.w3.org/2000/svg">
 <g fill="#fff" fill-rule="evenodd">
  <path d="m214.66 307.56-29.039-43.559 29.039-43.559c2.4492-3.6797 1.457-8.6484-2.2148-11.098-3.6797-2.4492-8.6484-1.457-11.098 2.2148l-32 48c-1.793 2.6875-1.793 6.1914 0 8.8789l32 48c2.4492 3.6719 7.4141 4.6641 11.098 2.2148 3.6719-2.4492 4.6641-7.4141 2.2148-11.098z"/>
  <path d="m310.66 316.44 32-48c1.793-2.6875 1.793-6.1914 0-8.8789l-32-48c-2.4492-3.6719-7.4141-4.6641-11.098-2.2148-3.6719 2.4492-4.6641 7.4141-2.2148 11.098l29.039 43.559-29.039 43.559c-2.4492 3.6797-1.457 8.6484 2.2148 11.098 3.6797 2.4492 8.6484 1.457 11.098-2.2148z"/>
  <path d="m264.41 213.47-32 96c-1.3906 4.1836 0.87109 8.7188 5.0625 10.121 4.1836 1.3906 8.7188-0.87109 10.121-5.0625l32-96c1.3906-4.1836-0.87109-8.7188-5.0625-10.121-4.1836-1.3906-8.7188 0.87109-10.121 5.0625z"/>
  <path d="m301.66 58.344c-1.4961-1.5039-3.5352-2.3438-5.6562-2.3438h-152c-6.3281 0-12.383 2.4336-16.855 6.7266-4.5938 4.4062-7.1445 10.398-7.1445 16.633v353.28c0 6.2305 2.5508 12.223 7.1445 16.633 4.4727 4.2969 10.527 6.7266 16.855 6.7266h224c6.3281 0 12.383-2.4336 16.855-6.7266 4.5938-4.4062 7.1445-10.398 7.1445-16.633v-280.64c0-2.1211-0.83984-4.1602-2.3438-5.6562zm74.344 357.66v16.641c0 1.9102-0.81641 3.7344-2.2227 5.0898-1.5273 1.4727-3.6172 2.2734-5.7773 2.2734h-224c-2.1602 0-4.2461-0.80078-5.7773-2.2734-1.4062-1.3516-2.2227-3.1758-2.2227-5.0898v-16.641zm-88-344h-144c-2.1602 0-4.2461 0.80078-5.7773 2.2734-1.4062 1.3516-2.2227 3.1758-2.2227 5.0898v320.64h240v-240h-64c-6.3672 0-12.473-2.5273-16.969-7.0312-4.5039-4.4961-7.0312-10.602-7.0312-16.969zm16 11.312v52.688c0 2.1211 0.83984 4.1602 2.3438 5.6562 1.4961 1.5039 3.5352 2.3438 5.6562 2.3438h52.688z"/>
 </g>
</svg>