<?xml version="1.0" encoding="UTF-8"?>
<svg width="512pt" height="512pt" version="1.1" viewBox="0 0 512 512" xmlns="http://www.w3.org/2000/svg">
 <g fill="#fff" fill-rule="evenodd">
  <path d="m304 320c8.8477 0 14.488-2.168 18.289-5.168 4.2383-3.3438 6.5508-7.9219 7.7266-13.434 0.95312-4.4648 1.0703-9.7031 1.8008-15.023 0.76172-5.6172 2.2969-11.488 8.6328-15.727 2.2227-1.4805 3.5508-3.9844 3.5508-6.6562 0-2.6719-1.3359-5.168-3.5586-6.6484-6.3359-4.2227-7.8633-10.09-8.625-15.695-0.72656-5.3281-0.84766-10.566-1.8008-15.039-1.1758-5.5117-3.4883-10.09-7.7266-13.434-3.8008-3-9.4414-5.1758-18.289-5.1758-4.4141 0-8 3.5859-8 8s3.5859 8 8 8c3.7188 0 6.3203 0.36719 8.0898 1.5195 1.8945 1.2461 2.1602 3.4492 2.5273 5.7852 0.48828 3 0.65625 6.3125 1.0078 9.7031 0.83203 7.8945 2.5859 16.031 8.4258 23-5.8398 6.9688-7.5938 15.113-8.4258 23-0.35156 3.3906-0.51953 6.7031-1.0078 9.7031-0.36719 2.3281-0.625 4.5273-2.5273 5.7695-1.7617 1.1523-4.3672 1.5195-8.0898 1.5195-4.4141 0-8 3.5859-8 8s3.5859 8 8 8z"/>
  <path d="m208 304c-3.7188 0-6.3281-0.36719-8.0898-1.5195-1.9023-1.2383-2.1602-3.4414-2.5273-5.7695-0.48828-3-0.65625-6.3125-1.0078-9.7031-0.83203-7.8867-2.5859-16.031-8.4258-23 5.8398-6.9688 7.5938-15.105 8.4258-23 0.35156-3.3906 0.51953-6.7031 1.0078-9.7031 0.36719-2.3359 0.63281-4.5352 2.5273-5.7852 1.7695-1.1523 4.3672-1.5195 8.0898-1.5195 4.4141 0 8-3.5859 8-8s-3.5859-8-8-8c-8.8477 0-14.488 2.1758-18.289 5.1758-4.2383 3.3438-6.5508 7.9219-7.7266 13.434-0.95312 4.4727-1.0703 9.7109-1.8008 15.039-0.76172 5.6094-2.2891 11.473-8.625 15.695-2.2227 1.4805-3.5586 3.9766-3.5586 6.6484 0 2.6719 1.3281 5.1758 3.5508 6.6562 6.3359 4.2383 7.8711 10.113 8.6328 15.727 0.72656 5.3203 0.84766 10.559 1.8008 15.023 1.1758 5.5117 3.4883 10.09 7.7266 13.434 3.8008 3 9.4414 5.168 18.289 5.168 4.4141 0 8-3.5859 8-8s-3.5859-8-8-8z"/>
  <path d="m264.41 213.47-32 96c-1.3906 4.1836 0.87109 8.7188 5.0625 10.121 4.1836 1.3906 8.7188-0.87109 10.121-5.0625l32-96c1.3906-4.1836-0.87109-8.7188-5.0625-10.121-4.1836-1.3906-8.7188 0.87109-10.121 5.0625z"/>
  <path d="m301.66 58.344c-1.4961-1.5039-3.5352-2.3438-5.6562-2.3438h-152c-6.3281 0-12.383 2.4336-16.855 6.7266-4.5938 4.4062-7.1445 10.398-7.1445 16.633v353.28c0 6.2305 2.5508 12.223 7.1445 16.633 4.4727 4.2969 10.527 6.7266 16.855 6.7266h224c6.3281 0 12.383-2.4336 16.855-6.7266 4.5938-4.4062 7.1445-10.398 7.1445-16.633v-280.64c0-2.1211-0.83984-4.1602-2.3438-5.6562zm74.344 357.66v16.641c0 1.9102-0.81641 3.7344-2.2227 5.0898-1.5273 1.4727-3.6172 2.2734-5.7773 2.2734h-224c-2.1602 0-4.2461-0.80078-5.7773-2.2734-1.4062-1.3516-2.2227-3.1758-2.2227-5.0898v-16.641zm-88-344h-144c-2.1602 0-4.2461 0.80078-5.7773 2.2734-1.4062 1.3516-2.2227 3.1758-2.2227 5.0898v320.64h240v-240h-64c-6.3672 0-12.473-2.5273-16.969-7.0312-4.5039-4.4961-7.0312-10.602-7.0312-16.969zm16 11.312v52.688c0 2.1211 0.83984 4.1602 2.3438 5.6562 1.4961 1.5039 3.5352 2.3438 5.6562 2.3438h52.688z"/>
 </g>
</svg>